<?xml version="1.0" encoding="utf-8"?>
<!-- Generator: Adobe Illustrator 24.0.1, SVG Export Plug-In . SVG Version: 6.00 Build 0)  -->
<svg version="1.2" baseProfile="tiny" id="_x3C_Layer_x3E_"
	 xmlns="http://www.w3.org/2000/svg" xmlns:xlink="http://www.w3.org/1999/xlink" x="0px" y="0px" viewBox="0 0 3200 1600"
	 xml:space="preserve">
<rect fill="transparent" width="3200" height="1600"/>
<g>
	<path fill="transparent" d="M335.4,1429.9c0,0-255.1-428.6,71-742.9c326.1-314.2,606.5-140.1,748.8-148.9
		c142.3-8.7,187.9-283.9,608.9-367c421-83,1100.2,8.5,729.4,597.7c-220.3,350,456.4,190.2,361.5,661.9L335.4,1429.9z"/>
	<g>
		<path fill="#D9935C" d="M879.3,567.4c0,0,1.2-7.7,1.6-12.9c0.4-5.2-1.5-10.2-2.9-14.5c-1.4-4.3,5.6-9.3,5.6-12.2
			c0-2.9-3.6-3.8-8.6-2.3c-5,1.6-19.7,16.3-15.6,23.9c4.1,7.7,5.3,19.9,5.3,19.9l0,0c-1.5,10.1-14.1,92.4-18.7,116.8
			c-7,37.2-69.5,47.3-69.5,47.3l30.4,42.8c0,0,63.2-61,71.7-82.4C884.9,678.1,879.9,578.1,879.3,567.4L879.3,567.4z"/>
		<path fill="#163560" d="M502,805.7c0,0,34.5,13.4,65.7-21.3c-0.7,1.1-21.8,33.5-39.8,39.3c2.3,1.6,4.6,3.3,6.7,5.1
			c9.3,7.5,17.3,15.7,26.4,20.5c0,0,0,0,0,0c22.5,12.1,41.8,17.7,58.1,18.3c15.4-6.9,24.3-21.8,29.3-34.7c2.4-1.9,4.8-3.8,7.1-5.6
			c-1.1,18.9-9.8,31.4-16.3,38.3c22.3-5.7,36.6-22.9,43.5-44.3c0.4-1.3,0.8-2.6,1.2-3.9c0.2-0.7,0.4-1.4,0.6-2.2
			c1.2-4.9,2.1-10,2.6-15.2c1.7-18-0.8-37.1-7.3-54.3c-0.3-0.8-0.6-1.5-0.9-2.3c0,0,0-0.1,0-0.1c-2.6-6.4-5.7-12.4-9.4-18
			c-6.7-10.1-7.8-23.5-6.3-37c3.3-29.5,19.6-59.9,19.6-59.9s-2.5-4-7.8-8.9c-10.3-9.3-31.4-21.9-66.4-15.4
			c-53.3,9.8-71.7,47.7-65.5,94.5c6.1,46.7,4.7,73.8-30.8,86c-0.1,0-0.2,0.1-0.4,0.1C502.5,788.2,499.2,797.9,502,805.7z"/>
		<path fill="#D9935C" d="M617.8,926.5c0,0,43.5,49.1,61.6,55.6c18.7,6.7,85.8-3,85.8-3s-7.8-59.1-6.1-77.3
			c1.6-18.3,42.2-85,45.4-112.6c3.3-27.6-28-55.7-28-55.7s-21.1,0-22.5-2.5c-0.6-1.1-1.2-2.3-1.7-3.5c-5.5-13.1-3.4-27.2-3.4-27.2
			l-40.4-1.7c0.4,4.9,0.6,9.1,0.9,12.7c0.8,12.4-7,23.8-18.8,27.7c-11.1,3.6-20.6,7.8-21.3,10.4c-3.5,13.2,29.7,104.2,18.3,113.1
			C639.8,899.7,617.8,926.5,617.8,926.5z"/>
		<path fill="#CC7C46" d="M708.6,698.7c0,0,2.7,20,43.8,28.9c-5.5-13.1-3.4-27.2-3.4-27.2L708.6,698.7z"/>
		<path fill="#D9935C" d="M762.1,695.6c0,0-39.8,28.8-57.3,3.7c-17.5-25-34.5-38.2-9.8-57.6c24.7-19.4,36.3-13.4,44.2-6.4
			C747.1,642.2,772,687.4,762.1,695.6z"/>
		<path fill="#FFFFFF" d="M742.4,688.3c0,0,2.7,2.7,10.2-2.5c0,0,6.4-4.4,4.1-7.7C756.6,678.1,748.7,679.5,742.4,688.3z"/>
		<path fill="#163560" d="M731.5,630.2c0,0,15.3-24-9.8-36.6c-42.1-21.1-43.8,35.6-56.4,39.5c-12.6,3.9-27.4,29.3-12.2,46.9
			c15.2,17.6,34.9,13.5,39,22.4c4.1,8.9,17.6,4.6,16.7,1.4c-0.4-1.2-3.7-3.1-5.5-7.7c-1-2.6,1.8-5.5,0.7-5.5
			c-10.1-0.4-16.2-15.8-5.3-14.7c10.9,1.1,15.4-9.3,14.9-13.5c-0.5-4.3-10.8-14.2-1.2-19.7C722.2,637.2,726.1,637.5,731.5,630.2z"/>
		<path fill="#D9935C" d="M746.8,1415.9c-10.2-2-30.2-15.4-30.2-15.4s-8.7-155.6,3.2-194.5c6.9-22.7,21.3-96.3,32-153.6
			c7.6-40.7,13.4-73.2,13.4-73.2H608.4c0,0,12,129.1,34.9,192c5.6,15.5,9.3,27.6,8.5,31.5c-14.7,65.2,44.4,197.8,44.4,197.8
			c-4.7,14-2.7,25.4-2.7,25.4h84.3C776.3,1419.4,757,1417.9,746.8,1415.9z"/>
		<path fill="#D9935C" d="M669.3,749.5c0,0-48.8,60.7-62.7,67.7c-15.7,7.9-78.3,12.3-91.3,13.1l0,0c0,0-7.2-2.8-13.1-6.7
			c-5.8-3.9-18.8,6.6-20.5,10.4c-1.7,3.8-1.3,6.8,1.1,7.1c2.4,0.3,6.9-4.9,10.3-3.5c3.3,1.5,7.1,3.4,11.3,3.5c3.6,0.1,8-0.2,9.3-0.3
			c10.7,2.4,72.7,15.9,104.1,9.7c9-1.8,76.7-56.5,76.7-56.5l6.2-55.6L669.3,749.5z"/>
		<path fill="#CC7B44" d="M627.3,979.1c0,0-9.5,129.8,17.3,195.5l107.1-122.3c7.6-40.7,13.4-73.2,13.4-73.2H627.3z"/>
		<path fill="#D9935C" d="M632.8,918.7c-22.8-3.3-35.2,15.4-41.6,42.3c-4.8,20.4-6.1,45.4-5.8,69c0.5,41.3,5.8,78.2,5.8,78.2
			s-21.4-24.6-54-30c-81.5-13.6-110.2-30-114-32.4c-1-2.7-2.3-6.8-4-12.6c-3.6-12.3-5.8-17.7-22-18.9c-16.2-1.2-32.7-19.6-36-13.9
			c-3.3,5.7,15.6,31.1,22.1,37.7c6.5,6.5,26.2,22.1,26.2,22.1l0,0c71.5,67.1,201.8,122.1,201.8,122.1
			C640.8,1168.2,750.2,969,750.2,969S703.3,928.9,632.8,918.7z"/>
		<path fill="#C65447" d="M579.9,851.4C579.9,851.4,579.9,851.4,579.9,851.4c0,0,34.7,3.2,40.4,1c5.7-2.3,17-10.7,28.1-19.4
			c2.4-1.9,4.8-3.8,7.1-5.6c11.1-8.7,20.8-16.2,22.8-15.8c0,0,0,0,0,0c0.1,0,0.3,0.1,0.4,0.2c1.2,0.9,2.6,4.6,4,9.6
			c3.7,13.1,7.2,35,6.6,38.5c0,0,0,0,0,0c0,0.1-0.1,0.2-0.1,0.3c0,0,0,0,0,0c0,0,0,0,0,0c-1.5,2-23.4,20-32.9,27.7
			c-2.7,2.2-4.4,3.6-4.4,3.6s0.2,0.1,0.6,0.3c0.4,0.2,1,0.5,1.7,0.8c1.6,0.8,4.1,2,7.3,3.5l0,0c7.2,3.4,18,8.3,30.2,13
			c21.8,8.4,48.3,16.3,67.9,15c1.4-0.1,2.8-0.2,4.1-0.4c0,0-3.2-18.6,1.4-26.8c4.6-8.2,35.8-83.4,37.2-88.9
			c1.2-4.9,1.7-11.7,2.1-17.8c0.1-1.6,0.2-3.2,0.4-4.6c0.4-4.5,1-8.1,2.2-9.2c0,0,0.1-0.1,0.2-0.2c0,0,0.1-0.1,0.1-0.1
			c0.1-0.1,0.2-0.2,0.3-0.3c0.2-0.2,0.3-0.3,0.5-0.5c0-0.1,0.1-0.1,0.1-0.1c7.7-7.6,46.4-46.3,63.1-68.9c0.1-0.2,0.2-0.3,0.3-0.4
			c3.6-4.9,6.1-9,7-11.8l0,0c0.4-1.2,0.7-2.4,1-3.7c4.2-17.2,2.6-43.1,2.6-43.1s0,0,0,0c-0.4-0.1-3-1-13-2.3
			c-7.2-1-15.8-0.2-16.2-0.1c0,0,0,0,0,0s-6.2,36.9-8,38.8c-4.7,5.3-58,47-67.6,49.8c0,0,0,0,0,0c-0.3,0.1-0.6,0.1-0.8,0.1
			c0,0,0,0,0,0h-0.1c-1.2,0-2.4,0-3.6,0c-0.1,0-0.1,0-0.2,0c-4.7,0-8.2,0-8.2,0s13.7,18.8,12.1,34.1c-1.6,15.3-45.9,14.7-57.9,5.5
			c-6.3-4.9-13.8-14.1-19.5-21.7c-3-4.1-5.5-7.7-7.1-9.9c-1-1.5-1.6-2.4-1.6-2.4s0,0,0,0c-0.1,0-0.2,0.1-0.5,0.2
			c-0.1,0-0.2,0.1-0.3,0.1c-0.1,0-0.3,0.1-0.4,0.1c-2.1,0.7-6.3,2.2-10.5,4c-2.3,1-4.5,2-6.5,3.1c0,0,0,0,0,0
			c-1.4,0.8-2.6,1.6-3.6,2.4c-9.7,8-55.8,64.1-61.7,68c0,0,0,0,0,0c-0.1,0.1-0.2,0.1-0.3,0.2c-3.8,1.2-26.8,6.6-26.8,6.6s0,0,0,0
			c-0.1,0.2-1.8,6.8-1.9,13.4C577.8,845.7,579.8,851.1,579.9,851.4z"/>
		<path fill="#CC7B44" d="M585.5,1030c4.2-4.5,26.9-22.5,112.7-10.8c0,0-53.8-61.7-106.8-58.2C586.5,981.4,585.2,1006.4,585.5,1030z
			"/>
		<path fill="#C4453B" d="M651.8,891.5c0,0,17.4,9.1,39.8,17.7c12.3-15.4,18.7-41.3,17-57c-2.7-25.1-26.4-38.6-29.9-40.4
			c4.4,3.5,12,46.1,10.4,48.4c0,0,0,0,0,0c-1.5,2-23.4,20-32.9,27.7C653.5,890.2,651.8,891.5,651.8,891.5z"/>
		<path fill="#C4453B" d="M806.9,776.3c3-2.9,66.2-65.4,71.7-82.4C878.6,694,797.3,745.1,806.9,776.3z"/>
		<g>
			<path fill="#C65447" d="M763.7,928.7c0,0,99.2,87.4,123.5,128.4c0.6,1.1,0,3.7,0,4.9c0,0-26.1,4-46.6-7.7
				c-20.5-11.6-31.9-9.2-45.8-6.7c-13.9,2.5-31.7,0.8-47-14.7c-15.3-15.6-37.4-8.5-48.8-7.9c-11.5,0.5-25.1-6-31.7-13.6
				c-6.5-7.6-27.8-14.7-36.6-9.6c-8.7,5.2-25.1,3-35.5-5.2c-10.4-8.2-15.8-22.4-36.6-18c-20.7,4.4-31.1,4.4-40.4-2.2
				c-9.3-6.5-25.7-17.7-39.8-13.8c-14.2,3.9-35.6-19.6-35.6-19.6s-1-4.4,0-4.9c14.2-6.8,122.3-52.5,213.3-45.2
				C656.2,892.9,702.3,925.8,763.7,928.7z"/>
			<path fill="#F1A34F" d="M442.9,938.1c0,0,1,1.1,2.8,2.9c6,5.9,20.3,18.5,31.2,17c0.5-0.1,1.1-0.2,1.6-0.3c0,0,0,0,0,0
				c14.2-3.9,30.5,7.2,39.8,13.8c9.3,6.6,19.7,6.6,40.4,2.2c4.6-1,8.4-1,11.7-0.4c10.5,1.8,15.7,10.1,22.5,16.4v0
				c0.8,0.7,1.5,1.4,2.4,2c5.6,4.4,12.8,7,19.7,7.8c6,0.6,11.7-0.2,15.7-2.6c2.8-1.7,6.8-2.1,11.3-1.6c8.9,0.9,19.4,5.3,24.3,10.2
				c0.3,0.3,0.6,0.7,0.9,1c6.6,7.6,20.2,14.2,31.7,13.6c8.2-0.4,21.8-4.1,34.4-0.6c0,0,0,0,0,0c5.1,1.4,10,4,14.4,8.5
				c7.9,8,16.5,12.4,24.8,14.3h0c7.8,1.8,15.4,1.6,22.1,0.4c9.1-1.6,17.1-3.2,27.3-0.9c0,0,0,0,0,0c5.4,1.2,11.4,3.6,18.5,7.6
				c20.5,11.6,46.6,7.7,46.6,7.7c-20.9-39.3-123.5-133.3-123.5-133.3c-61.4-2.9-107.4-35.8-107.4-35.8
				C558.5,880.2,442.9,938.1,442.9,938.1z"/>
			<g>
				<path fill="#EE9849" d="M772.6,1042.2L772.6,1042.2c7.8,1.8,15.4,1.6,22.1,0.4c9.1-1.6,17.1-3.2,27.3-0.9
					c-0.6-0.7-38.7-49.4-43.5-46.3C773.7,998.5,762.1,1036,772.6,1042.2z"/>
				<path fill="#EE9849" d="M666.4,1005.4c0.3,0.3,0.6,0.7,0.9,1c6.6,7.6,20.2,14.2,31.7,13.6c8.2-0.4,21.8-4.1,34.4-0.6
					c-0.3-0.7-20-42.8-29.9-44.3C694.8,973.8,668.7,992.2,666.4,1005.4z"/>
				<path fill="#EE9849" d="M445.7,941c6,5.9,20.3,18.5,31.2,17c0.5-0.1,1-0.2,1.6-0.3c0,0,0,0,0,0c1.1-0.4,68.6-29.2,72.1-35.7
					C553.8,916,463.3,932.5,445.7,941z"/>
				<path fill="#EE9849" d="M518.3,971.4c9.3,6.6,19.7,6.6,40.4,2.2c4.6-1,8.4-1,11.7-0.4c0,0,39.8-22.9,38-30
					C606.7,936,518.3,966.5,518.3,971.4z"/>
				<path fill="#EE9849" d="M592.9,989.6L592.9,989.6c0.8,0.7,1.5,1.4,2.4,2c5.6,4.4,12.8,7,19.7,7.8c6,0.6,11.7-0.2,15.7-2.6
					c2.8-1.7,6.8-2.1,11.3-1.6c2.5-2.2,23.6-21.2,19.6-25.9C657.3,964.3,590.6,982.6,592.9,989.6z"/>
			</g>
		</g>
	</g>
	<path fill="#82B378" d="M452.2,1416.4c3.8,1.4,9.1,1.9,15.2,1.8c-27.5-16.1-117-44.2-74.4-49.9c39.1-5.3,68.4,34.5,78.1,49.8
		c4.4-0.2,9.2-0.6,14.2-1.2c-38.8-44.2-155.5-182.3-92.4-178.8c62.3,3.5,93,133.2,101.7,177.5c4.5-0.6,9.1-1.4,13.5-2.1
		c-2.1-14.1-2.1-38,19-45.4c28.9-10.1,21.7,29.1,11.3,41.3c7.4-0.6,13.2-0.3,16.1,1.4c7.8,4.8,11,11.3,12.3,15.5H393.5
		C404.6,1421.6,434.4,1410.1,452.2,1416.4z"/>
	<g>
		<path fill="#82B378" d="M2747.9,1414.1c0,0,6.5-116.8,43.7-112.7c37.3,4.1,0,40.5-10.5,62c-10.5,21.5-21.9,55.7-21.9,55.7
			L2747.9,1414.1z"/>
		<path fill="#82B378" d="M2769.4,1419.1c0,0,20.6-70.9,48-67.4c27.4,3.5,16.4,23.9-3,36.1
			C2794.9,1399.9,2769.4,1419.1,2769.4,1419.1z"/>
		<path fill="#82B378" d="M2829.2,1426.3h-111.6c-8.4-4.5,2.3-17.4,13.5-18.2c4.6-0.3,10.4,0.6,17.1,2c4.1,0.9,8.5,1.9,13.2,2.9
			c3,0.7,6.1,1.3,9.3,1.9c1.2,0.2,2.3,0.4,3.5,0.6h0c7.1,1.1,14.4,1.9,21.9,1.7C2817.2,1416.8,2826.4,1423.7,2829.2,1426.3z"/>
	</g>
	<g>
		<g>
			<g>
				<path fill="#588DDB" d="M1419.6,639.7c0,0,72.2-16.3,88.3-2.8c16.1,13.5,47.6,251.2,47.6,251.2s-44-95.4-57.4-143
					C1484.2,695.2,1419.6,639.7,1419.6,639.7z"/>
				<path fill="#72A9F7" d="M1555.5,888.1c-1.8-1.9-182.7-197.2-183.9-216c-1.2-18.8,43.1-39.7,102.4-40.3c0,0-43.6,31.9-41.8,43
					c3.3,19.8,32.5,36.6,55.5,88.3C1514.7,823.9,1555,887.2,1555.5,888.1z"/>
			</g>
			<g>
				<path fill="#72A9F7" d="M1555.5,888.1c-1-0.8-13.2-10.2-31.8-23.8c0,0,0,0-0.1,0c-56-40.8-170-118.9-214.7-113.3
					c-19.2,2.4-39.3,9.9-57.1,19.6c0,0,0,0,0,0c-38.1,20.7-66.1,51.1-54.5,62.6C1214.5,850.1,1438,826.1,1555.5,888.1
					C1555.5,888.1,1555.5,888.1,1555.5,888.1z M1264.7,810.6c0,0,37.5-17.1,50.6-16s106.9,22.2,118,31.5
					C1444.3,835.4,1264.7,810.6,1264.7,810.6z"/>
				<path fill="#588DDB" d="M1555.5,888.1c-117.5-62-341.1-38-358.2-54.9c-11.7-11.5,16.3-42,54.5-62.6c-0.5,0.5-23.4,23.1-3.1,27.9
					c18.7,4.4,159.7-9.4,274.9,65.7c0,0,0,0,0.1,0C1534.5,871.4,1545.2,879.3,1555.5,888.1C1555.5,888.1,1555.5,888.1,1555.5,888.1z
					"/>
			</g>
			<path fill="#588DDB" d="M1554.4,888c0,0,56.5-111.6,48.6-172.6c0,0-13.8,15-18.5,17.6c0,0-11.6-17.4-12.5-19.7
				c-0.8-2.3,0.8,2.3,0.8,2.3S1549.6,852.3,1554.4,888z"/>
			<path fill="#72A9F7" d="M1555.5,888.1c0,0,47.6-108.4,161.7-107.8c0,0-19,16.8-19.2,23.6c0,0,20.3,5.7,26.4,6.3
				c0,0-101.4,19.1-156.2,79.4L1555.5,888.1z"/>
		</g>
		<g>
			<g>
				
					<rect x="1126.5" y="920.7" transform="matrix(-1 -1.224647e-16 1.224647e-16 -1 2781.3535 2348.6602)" fill="#D86713" width="528.4" height="507.3"/>
				
					<rect x="1390.7" y="920.7" transform="matrix(-1 -1.224647e-16 1.224647e-16 -1 3309.7881 2348.6602)" fill="#F1A34F" width="528.4" height="507.3"/>
				<polygon fill="#EA913D" points="1390.7,920.7 1920.5,920.7 1920.5,1082 1390.7,1428 				"/>
			</g>
			<g>
				<rect x="1115.3" y="868.5" fill="#F4A762" width="275.4" height="88"/>
				<rect x="1390.7" y="868.5" fill="#FFB871" width="539.2" height="88"/>
			</g>
			<rect x="1647.7" y="868.5" fill="#72A9F7" width="40.8" height="560.2"/>
			<rect x="1238.1" y="868.5" fill="#588DDB" width="40.8" height="559"/>
		</g>
	</g>
	<g>
		<path fill="#D86713" d="M2286.8,1037.9c0,0-35.6-8-43.5-1.4c-7.9,6.7-23.5,123.8-23.5,123.8s21.7-47,28.3-70.5
			C2255,1065.3,2286.8,1037.9,2286.8,1037.9z"/>
		<path fill="#F1A34F" d="M2219.9,1160.3c0.9-0.9,90-97.2,90.6-106.4c0.6-9.3-21.3-19.6-50.4-19.8c0,0,21.5,15.7,20.6,21.2
			c-1.6,9.8-16,18-27.3,43.5C2240,1128.7,2220.2,1159.9,2219.9,1160.3z"/>
		<path fill="#F1A34F" d="M2219.9,1160.3c57.9-30.5,168.1-18.7,176.5-27.1c5.7-5.7-8.1-20.7-26.8-30.9c0,0,0,0,0,0
			c-8.8-4.8-18.7-8.5-28.1-9.7c-22-2.8-78.2,35.7-105.8,55.8c0,0,0,0,0,0C2226.4,1155.3,2220.4,1159.9,2219.9,1160.3
			C2219.9,1160.3,2219.9,1160.3,2219.9,1160.3z M2280.1,1129.7c5.5-4.6,51.7-15,58.1-15.5c6.5-0.5,24.9,7.9,24.9,7.9
			S2274.7,1134.3,2280.1,1129.7z"/>
		<path fill="#D86713" d="M2219.9,1160.3c57.9-30.5,168.1-18.7,176.5-27.1c5.7-5.7-8.1-20.7-26.8-30.9c0.2,0.2,11.5,11.4,1.5,13.8
			c-9.2,2.2-78.7-4.6-135.5,32.4c0,0,0,0,0,0C2230.2,1152.1,2225,1156,2219.9,1160.3C2219.9,1160.3,2219.9,1160.3,2219.9,1160.3z"/>
		<path fill="#D86713" d="M2220.4,1160.3c0,0-25.9-37.7-21-59c0,0,6.5,5,8.8,5.8c0,0,6-6.2,6.4-7c0.5-0.8-0.5,0.8-0.5,0.8
			S2223.4,1147.8,2220.4,1160.3z"/>
		<path fill="#F1A34F" d="M2219.9,1160.3c0,0-37.6-79.5-129.7-78.2c0,0,15.2,12.3,15.3,17.2c0,0-16.5,4.3-21.4,4.9
			c0,0,81.7,13.3,125.5,57.3L2219.9,1160.3z"/>
		<rect x="2170.9" y="1176.3" fill="#B54139" width="260.4" height="250"/>
		<rect x="2040.7" y="1176.3" fill="#E57970" width="260.4" height="250"/>
		<polygon fill="#D6675C" points="2301.1,1176.6 2040.1,1176.6 2040.1,1256.1 2301.1,1426.6 		"/>
		
			<rect x="2301.1" y="1150.7" transform="matrix(-1 -1.224647e-16 1.224647e-16 -1 4737.9072 2344.6543)" fill="#D35950" width="135.7" height="43.3"/>
		
			<rect x="2035.4" y="1150.7" transform="matrix(-1 -1.224647e-16 1.224647e-16 -1 4336.5156 2344.6543)" fill="#E57970" width="265.7" height="43.3"/>
		
			<rect x="2154.3" y="1150.7" transform="matrix(-1 -1.224647e-16 1.224647e-16 -1 4328.7852 2577.3564)" fill="#FFB871" width="20.1" height="276"/>
		<rect x="2356.1" y="1150.7" fill="#EA913D" width="20.1" height="275.5"/>
	</g>
	<g>
		<path fill="#D86713" d="M990.7,1115.9c0,0,28.5-6.4,34.8-1.1c6.3,5.3,18.8,99,18.8,99s-17.3-37.6-22.6-56.3
			C1016.1,1137.7,990.7,1115.9,990.7,1115.9z"/>
		<path fill="#F1A34F" d="M1044.2,1213.7c-0.7-0.8-72-77.7-72.5-85.1c-0.5-7.4,17-15.6,40.3-15.9c0,0-17.2,12.6-16.5,16.9
			c1.3,7.8,12.8,14.4,21.9,34.8C1028.1,1188.4,1044,1213.4,1044.2,1213.7z"/>
		<path fill="#F1A34F" d="M1044.2,1213.7c-0.4-0.3-5.2-4-12.5-9.4c0,0,0,0,0,0c-22.1-16.1-67-46.8-84.6-44.6
			c-7.6,1-15.5,3.9-22.5,7.7c0,0,0,0,0,0c-15,8.1-26.1,20.1-21.5,24.7C909.8,1198.7,997.9,1189.3,1044.2,1213.7
			C1044.2,1213.7,1044.2,1213.7,1044.2,1213.7z M929.6,1183.2c0,0,14.8-6.7,19.9-6.3c5.2,0.4,42.1,8.7,46.5,12.4
			C1000.4,1192.9,929.6,1183.2,929.6,1183.2z"/>
		<path fill="#D86713" d="M1044.2,1213.7c-46.3-24.4-134.4-15-141.1-21.6c-4.6-4.5,6.4-16.5,21.5-24.7c-0.2,0.2-9.2,9.1-1.2,11
			c7.4,1.7,62.9-3.7,108.3,25.9c0,0,0,0,0,0C1035.9,1207.1,1040.1,1210.2,1044.2,1213.7C1044.2,1213.7,1044.2,1213.7,1044.2,1213.7z
			"/>
		<path fill="#D86713" d="M1043.8,1213.7c0,0,20.7-30.2,16.8-47.2c0,0-5.2,4-7,4.6c0,0-4.8-5-5.2-5.6c-0.4-0.6,0.4,0.6,0.4,0.6
			S1041.4,1203.7,1043.8,1213.7z"/>
		<path fill="#F1A34F" d="M1044.2,1213.7c0,0,30-63.6,103.7-62.5c0,0-12.2,9.8-12.2,13.8c0,0,13.2,3.5,17.1,3.9
			c0,0-65.3,10.6-100.3,45.8L1044.2,1213.7z"/>
		<rect x="875.2" y="1226.5" fill="#4A75CB" width="208.2" height="199.9"/>
		<rect x="979.3" y="1226.5" fill="#72A9F7" width="208.2" height="199.9"/>
		<polygon fill="#6699EA" points="979.3,1226.5 1188,1226.5 1188,1290.1 979.3,1426.4 		"/>
		<rect x="870.8" y="1206" fill="#3160AA" width="108.5" height="34.7"/>
		<rect x="979.3" y="1206" fill="#3366CC" width="212.4" height="34.7"/>
		<rect x="1080.5" y="1206" fill="#FFB871" width="16.1" height="220.7"/>
		<rect x="919.2" y="1206" fill="#EA913D" width="16.1" height="220.3"/>
	</g>
	<path fill="#2E3552" d="M2931.1,1433.5H219c-1.7,0-3.1-1.4-3.1-3.1v-1c0-1.7,1.4-3.1,3.1-3.1h2712.1c1.7,0,3.1,1.4,3.1,3.1v1
		C2934.1,1432.1,2932.8,1433.5,2931.1,1433.5z"/>
	<g>
		<g>
			<path fill="#6BB7BF" d="M1344.4,204.4c0,0,9.7,13.3,8.7,28.5c-0.8,11.3-10.8,22.7-11.5,23.2l15.9,8.5c0,0,11.8-20.9,7.8-38.4
				c-1.2-5.4-6.8-13.9-11-17.7C1349.8,204.3,1344.4,204.4,1344.4,204.4z"/>
			<path fill="#86D1CD" d="M1312,205.8l-10.1-22.2c0,0,46.9,1.6,62.5,39.8C1364.4,223.4,1331.6,200,1312,205.8z"/>
		</g>
		<g>
			<path fill="#6BB7BF" d="M1821.9,1278.3c0,0-4,8.6-12,12.3c-5.9,2.7-14.5,0.9-14.9,0.6l0.1,10.4c0,0,13.8,0.1,21.5-6.7
				c2.4-2.1,5.1-7.3,5.9-10.5C1823.5,1280.9,1821.9,1278.3,1821.9,1278.3z"/>
			<path fill="#86D1CD" d="M1812.2,1262.3l8.4-11.2c0,0,12.3,24.1-2.7,42.6C1817.9,1293.6,1820.6,1270.6,1812.2,1262.3z"/>
		</g>
		<g>
			<path fill="#6BB7BF" d="M971.7,746.3c0,0-11.2-8.4-14.1-21.1c-2.1-9.4,3.2-21.1,3.7-21.7l-15-3c0,0-4.4,19.9,3.1,33.1
				c2.3,4.1,9,9.6,13.3,11.7C967.4,747.7,971.7,746.3,971.7,746.3z"/>
			<path fill="#86D1CD" d="M997.8,737.1l13.6,15.6c0,0-38.5,10.2-60.6-17C950.8,735.7,983.3,746.7,997.8,737.1z"/>
		</g>
		<g>
			<path fill="#6BB7BF" d="M1865.8,329.6c0,0-1.7-13.2,5-23.5c4.9-7.6,16.4-11.8,17.1-11.8l-7.9-12.1c0,0-16.4,10.2-20.4,24
				c-1.2,4.2-0.6,12.5,0.9,16.8C1862,327.6,1865.8,329.6,1865.8,329.6z"/>
			<path fill="#86D1CD" d="M1889.3,341.2l-1.5,19.6c0,0-32.4-19.3-28.5-52.3C1859.2,308.4,1873.2,337.7,1889.3,341.2z"/>
		</g>
		<g>
			<path fill="#F1A34F" d="M2169.9,652.9c0,0,8.2-17.7,44.8-8.4c16.4,4.2,44.8,28.3,7.3,48.7c-39.1,21.2-51.4-0.9-51.4-0.9
				s62.9-10.3,53.9-35.8c-9.9-28.1-36.3,2.3-36.3,2.3S2180.7,654.1,2169.9,652.9z"/>
			<path fill="#DB7714" d="M2163.8,691.1c0,0-8.4-13.1,4.2-24.9l15.6,12.4c0,0-15.2,12,0,22.8C2183.6,701.4,2166,696.6,2163.8,691.1
				z"/>
		</g>
		<g>
			<path fill="#5685D8" d="M1420.3,518.2c0,0,22.1-15.4,38.8,7.5l18.3-7.9c0,0-9-14.2-44.4-7.9
				C1409.8,514.1,1420.3,518.2,1420.3,518.2z"/>
			<path fill="#739AF0" d="M1398.5,533.3c0,0,6-24.9,51.4-24.9c0,0-17,1.6-30.3,23.7L1398.5,533.3z"/>
		</g>
		<g>
			<path fill="#5685D8" d="M1996.2,842c0,0-22.8-9-13.8-33.1l-15.1-9.8c0,0-6.2,14,16.4,37.5C1998.4,852.1,1996.2,842,1996.2,842z"
				/>
			<path fill="#739AF0" d="M2018.5,850.9c0,0-21.8,8-44.7-26.3c0,0,9.8,12,33.2,11L2018.5,850.9z"/>
		</g>
		<path fill="#F1A34F" d="M2129.8,943.9c0,0,10.5-6.6,11.6-14.6c0,0,10.2,0.6,12.4,3.9c0,0-4.7,13.2-10.2,15.7
			C2143.5,948.9,2131.1,949.7,2129.8,943.9z"/>
		<path fill="#F1A34F" d="M1169,411.1c0,0,12.6-7.9,13.9-17.5c0,0,12.2,0.7,14.9,4.6c0,0-5.6,15.9-12.2,18.9
			C1185.6,417,1170.7,418,1169,411.1z"/>
		<path fill="#F1A34F" d="M1031.2,930.5c0,0-13.4-8.5-14.8-18.7c0,0-13.1,0.7-15.9,4.9c0,0,6,16.9,13.1,20.1
			C1013.6,936.9,1029.5,937.9,1031.2,930.5z"/>
		<path fill="#86D1CD" d="M1585.2,411.9c0,0-14.3-9.1-15.9-20c0,0-14,0.8-17,5.3c0,0,6.4,18.1,14,21.5
			C1566.4,418.7,1583.3,419.8,1585.2,411.9z"/>
		<path fill="#86D1CD" d="M2114.1,398c0,0,13.5-8.5,14.9-18.8c0,0,13.1,0.7,16,5c0,0-6,17-13.1,20.2
			C2131.8,404.4,2115.9,405.5,2114.1,398z"/>
	</g>
	<g>
		<path fill="#FFB27D" d="M2552.5,1417.1c-0.7,9-13.4,9-27.7,7.2c-14.4-1.8-10.6,1.9-30.7,2c-20.1,0.1-27-6.6-28-9.5
			c-0.9-2.6,8.9-4.6,19.2-7.1c1.3-0.3,2.6-0.6,3.9-0.9c11.7-2.9,21.8-9.2,29.6-19.1c8.7-11.2,16.7-62.1,16.7-62.1l31.4,5.9
			c0,0-18.3,43.6-20.2,58c-0.8,6.4,3.7,10.7,4.8,16.3C2552.2,1410.8,2552.8,1413.9,2552.5,1417.1z"/>
		<path fill="#365DA4" d="M2524.7,1425.7c-14.4-1.8-10.5,0.4-30.6,0.6c-20.1,0.1-27-6.6-28-9.5c-0.9-2.6,8.9-4.6,19.2-7.1l0.1,0.2
			c0,0,12.9,7,29.5,5.5c13.5-1.3,27.3-6.8,36.7-7.7c0.6,3.1,1.1,6.2,0.9,9.3C2551.8,1426.1,2539.1,1427.5,2524.7,1425.7z"/>
		<g>
			<path fill="#1C468A" d="M2659.1,967.8c0,0-17.2,55.3-31.2,111.3c-1.4,5.7-2.8,11.4-4.2,17.1c-3,12.9-5.8,25.5-8.1,37.1
				c-1,5-1.8,9.9-2.6,14.5c-0.8,4.8-1.4,9.3-1.9,13.6c-0.8,6.9-1.3,13.1-1.2,18.2c0,1.3,0.1,2.5,0.1,3.6
				c3.2,47.4-52.7,187.6-52.7,187.6s-5.4,2.3-17,0.2c-7.7-1.4-16-6.9-16-6.9c5.9-25.1,13.4-64.9,17.9-111.1c5-52.7,6.7-98,4.1-156.2
				c-0.6-13.7-0.9-26.6-0.8-38.4c0.1-50.5,5.2-83.3,7-92.9C2558.3,934.9,2659.1,967.8,2659.1,967.8z"/>
		</g>
		<path fill="#163560" d="M2659.1,967.8c0,0-17.2,55.3-31.2,111.3c-1.4,5.7-2.8,11.4-4.2,17.1c-3,12.9-5.8,25.5-8.1,37.1
			c-1,5-1.8,9.9-2.6,14.5c-0.8,4.8-1.4,9.3-1.9,13.6l-65.6-102.9c0.1-50.5,5.2-83.3,7-92.9C2558.3,934.9,2659.1,967.8,2659.1,967.8z
			"/>
		<path fill="#FFB27D" d="M2679.7,1417.1c-0.7,9-13.4,9-27.7,7.2s-10.6,1.9-30.7,2c-20.1,0.1-27-6.6-28-9.5
			c-0.9-2.6,8.9-4.6,19.2-7.1c1.3-0.3,2.6-0.6,3.9-0.9c11.7-2.9,19.5-11.6,29.6-19.1c9.5-7.2,2.9-41.9,2.9-41.9l29.6-10.6
			c0,0-4.5,35-4.5,54.2c0,6.5,3.7,10.7,4.8,16.3C2679.4,1410.8,2680,1413.9,2679.7,1417.1z"/>
		<path fill="#365DA4" d="M2652.2,1425.6c-14.4-1.8-10.9,0.6-31,0.7c-20.1,0.1-27-6.6-28-9.5c-0.9-2.6,8.9-4.6,19.2-7.1l0.1,0.2
			c0,0,12.9,7,29.5,5.5c13.5-1.3,27.3-6.8,36.7-7.7c0.6,3.1,1.1,6.2,0.9,9.3C2679,1426.1,2666.6,1427.4,2652.2,1425.6z"/>
		<path fill="#1C468A" d="M2598.4,956.8c0,0,32.8,163.4,38.3,252.4c5.5,89,12.5,162.6,12.5,162.6s7.2,2.6,15.4,2.1
			c8.7-0.5,15.5-3.2,15.5-3.2s32.5-133.8,21.7-187.4c-10.8-53.6-1.8-103,3.4-147.4c7.4-63.7-21.1-93.3-41-113.5
			C2644,902,2598.4,956.8,2598.4,956.8z"/>
		<path fill="#AA443E" d="M2575.1,657.4c-3.3-26.6,5.1-69.2,58.2-62.4c53.1,6.8,69.8,59,59.1,82.2c-10.7,23.2,15.4,28.8,23.6,53.8
			c7,21.4,9.5,48.1,20.9,60c36.8,38.5-35.3,97.8-78.7,85.3c-79.1-22.8-89.3-26.1-86.5-88.3c1.4-31.9,26.2-44.2,10.5-53.4
			C2544.2,712.3,2582.5,717.7,2575.1,657.4z"/>
		<path fill="#FFB27D" d="M2591.2,742.9l15.7,23.6l31.7-1.6l14.6-37.8c0,0-4.5-0.9-6.6-48l-39.5,12.1c0,0,2.1,12.3-0.7,25.7
			C2604.4,726.2,2600.1,736.1,2591.2,742.9z"/>
		<path fill="#FFB27D" d="M2586.8,726.3c2,0,39.2-12.5,92.4,9.2c0,0-25.2,144.3-14.4,171.9c10.8,27.5,15,52,15,52l-117.6,1.5
			c0,0,1.6-94.6-3.8-128C2553,799.3,2586.8,726.3,2586.8,726.3z"/>
		<path fill="#F1A34F" d="M2679.1,896.1c-0.7-2.8-1.2-5.2-1.4-7.3c-1.5-17.4,1.1-31.6,5.5-45.6c0,0,0,0,0,0c0.1-0.2,0.1-0.4,0.2-0.7
			c0.1-0.4,0.3-0.9,0.4-1.7c0,0,0,0,0-0.1c0.2-0.7,0.4-1.5,0.6-2.4c0.1-0.3,0.1-0.6,0.2-1c3-13.5,9.7-47.6,11.4-52.2
			c0.6-1.5,1.2-4.2,1.8-7.4c1.8-10.2,2.6-26.6-3.4-33.4c-8.3-9.5-36.7-16.6-36.7-16.6c-5.8,9.1-25.7,31.7-50.4,27.6
			c-14.3-2.4-16.5-30.1-16.5-30.1c-15.3,2.1-19.3,4.4-19.3,4.4s-36.7,22.9-88.7,95.9c-1.6,2.3-5.6,2.1-15.2,0.2
			c-12.2-2.4-37.1-2.1-74.7-7.6c0,0-1.3,0.9-1.6,5c-0.8,9.1-1.7,11.8-1.7,11.8s24.8,11.7,51.1,20c9.3,3,19,5.7,28.3,7.8
			c8.7,1.9,16.9,3.3,24.1,3.6c0,0,30-11.5,59.1-43.6c1.7,26.9,5.4,61.6,3.1,87c-1.3,14.4-11.2,63-8.7,71.1
			c5.2,16.8,44.8,17.7,80.2,15.9c0.8,0,1.5-0.1,2.3-0.1c5.5-0.3,10.9-0.8,15.9-1.4c9.5-1.1,17.7-2.4,23.1-3.7
			c6.9-1.6,15.6-3.9,22.7-7.3c5.4-2.6,9.9-5.9,11.8-10C2699.5,956.2,2683,916.3,2679.1,896.1z"/>
		<path fill="#EA913D" d="M2601.9,942.7c6.7,22.8,10.6,41.5,27.5,54.1c5.5-0.3,10.9-0.8,15.9-1.4c9.5-1.1,17.7-2.4,23.1-3.7
			c6.9-1.6,15.6-3.9,22.7-7.3c5.4-2.6,9.9-5.9,11.8-10c-3.4-18.3-19.8-58.2-23.8-78.5c-0.4-2-0.7-3.8-0.8-5.3
			c-1.5-18.1,0.9-33,4.9-47.6c0,0,0,0,0,0c0.2-0.8,0.4-1.5,0.7-2.3c0,0,0,0,0-0.1c0.1-0.5,0.3-1.3,0.6-2.4c0.1-0.3,0.1-0.6,0.2-1
			c2.7-12.8,9.8-53.1,11.6-58.4c0.6-1.7,1.2-4.5,1.8-8l-14.2-13.6c0,0-81.2,34.7-99.1,82.5C2566.8,887.8,2592.3,910.1,2601.9,942.7z
			"/>
		<path fill="#EA913D" d="M2440.9,855.2c18,5.7,37.5,10.7,52.4,11.4c0,0,30.4-11.7,59.6-44.2c1.2-5.5,2.4-14.8-4.3-12.1
			c-9.4,3.8-44.1,48.3-57.3,49.3C2482.1,860.2,2455.3,857,2440.9,855.2z"/>
		<path fill="#F1A34F" d="M2505.1,842.5c0,0,40,20.1,74.7,28.4c10,2.4,19.6,4.1,27.8,4.5c0,0,37.3-11.5,65.8-51.4
			c55-77.1,12.5-85.4,12.5-85.4s-36.8,22.9-88.7,95.9c-1.8,2.6-6.4,2-18.2-0.4c-12.6-2.5-37.7-2.2-72.4-7.3c0,0-0.6,1.3-0.9,5.4
			C2505,841.3,2505.1,842.5,2505.1,842.5z"/>
		<path fill="#ED975D" d="M2389.8,835.2c0,0,24.8,11.7,51.1,20c9.3,3,19,5.7,28.3,7.8c3.7-16.6,1.2-29.5-1.4-37
			c-12.2-2.4-38.3-2.5-75.9-8.1L2389.8,835.2z"/>
		<path fill="#ED975D" d="M2401.4,820.2c0,0-9.5-1.8-17.4-5.8c-7.9-4-29-6.6-33.5-2.4c-4.5,4.2,4.8,21.4,24,21.9
			c19.3,0.5,24.8,3.7,24.8,3.7L2401.4,820.2z"/>
		<path fill="#ED975D" d="M2606.4,716.8c16.3-1.3,40.2-37.7,40.2-37.7l-39.5,12.1C2607.1,691.2,2609.2,703.5,2606.4,716.8z"/>
		<path fill="#FFB27D" d="M2596.7,693.8c0,0,47.3,9.5,52.8-20.1c5.5-29.6,15.2-48.2-14.7-55.5c-30-7.3-37.9,2.9-42.2,12.3
			C2588.4,640,2584.5,690.6,2596.7,693.8z"/>
		<path fill="#AA443E" d="M2619.8,610.9c0,0-0.8,10,14.7,27s15.4,48.9,15.4,48.9s22.6-50.8,8.6-66.6
			C2644.6,604.5,2619.8,610.9,2619.8,610.9z"/>
		<path fill="#AA443E" d="M2638.8,597.8c0,0-23.5-7.9-46.9,15.1c-10.1,9.9-8.5,29.4-3.1,40.7c0,0,8.3-24.2,23.3-29.5
			C2627.2,618.9,2638.8,597.8,2638.8,597.8z"/>
		<path fill="#FFFFFF" d="M2611.4,679.3c0,0-1.3,3.5-10.2,1.9c0,0-7.5-1.3-6.8-5.3C2594.5,676,2602.1,674,2611.4,679.3z"/>
		<g>
			<g>
				<path fill="#C65447" d="M2448.8,734.7c0,0-12.9-2.9-15.8-0.5c-2.9,2.4-8.5,44.8-8.5,44.8s7.9-17,10.2-25.5
					C2437.3,744.6,2448.8,734.7,2448.8,734.7z"/>
				<path fill="#E57970" d="M2424.6,779c0.3-0.3,32.6-35.2,32.8-38.5c0.2-3.4-7.7-7.1-18.3-7.2c0,0,7.8,5.7,7.5,7.7
					c-0.6,3.5-5.8,6.5-9.9,15.7C2431.9,767.5,2424.7,778.8,2424.6,779z"/>
				<path fill="#E57970" d="M2424.6,779c21-11.1,60.8-6.8,63.9-9.8c2.1-2.1-2.9-7.5-9.7-11.2c0,0,0,0,0,0c-3.2-1.7-6.8-3.1-10.2-3.5
					c-8-1-28.3,12.9-38.3,20.2c0,0,0,0,0,0C2427,777.1,2424.8,778.8,2424.6,779C2424.6,779,2424.6,779,2424.6,779z M2446.4,767.9
					c2-1.7,18.7-5.4,21-5.6s9,2.9,9,2.9S2444.4,769.6,2446.4,767.9z"/>
				<path fill="#C65447" d="M2424.6,779c21-11.1,60.8-6.8,63.9-9.8c2.1-2.1-2.9-7.5-9.7-11.2c0.1,0.1,4.2,4.1,0.6,5
					c-3.3,0.8-28.5-1.7-49,11.7c0,0,0,0,0,0C2428.4,776,2426.5,777.4,2424.6,779C2424.6,779,2424.6,779,2424.6,779z"/>
				<path fill="#C65447" d="M2424.8,779c0,0-9.4-13.7-7.6-21.4c0,0,2.4,1.8,3.2,2.1c0,0,2.2-2.3,2.3-2.5c0.2-0.3-0.2,0.3-0.2,0.3
					S2425.9,774.4,2424.8,779z"/>
				<path fill="#E57970" d="M2424.6,779c0,0-13.6-28.8-46.9-28.3c0,0,5.5,4.4,5.5,6.2c0,0-6,1.6-7.7,1.8c0,0,29.6,4.8,45.4,20.7
					L2424.6,779z"/>
			</g>
			<g>
				<g>
					<rect x="2406.9" y="784.8" fill="#D86713" width="94.2" height="90.5"/>
					<rect x="2359.8" y="784.8" fill="#F1A34F" width="94.2" height="90.5"/>
					<polygon fill="#EA913D" points="2454,784.8 2359.5,784.8 2359.5,813.5 2454,875.2 					"/>
				</g>
				<g>
					
						<rect x="2454" y="775.5" transform="matrix(-1 -1.224647e-16 1.224647e-16 -1 4957.1016 1566.6357)" fill="#F4A762" width="49.1" height="15.7"/>
					
						<rect x="2357.9" y="775.5" transform="matrix(-1 -1.224647e-16 1.224647e-16 -1 4811.8643 1566.6357)" fill="#FFB871" width="96.1" height="15.7"/>
				</g>
				
					<rect x="2400.9" y="775.5" transform="matrix(-1 -1.224647e-16 1.224647e-16 -1 4809.0674 1650.8361)" fill="#E57970" width="7.3" height="99.9"/>
				<rect x="2473.9" y="775.5" fill="#C65447" width="7.3" height="99.7"/>
			</g>
		</g>
		<path fill="#FFB27D" d="M2579.8,870.9c-7.6-15.1-4.6-28.2-0.7-36.8c-12.1-2.5-36-3.6-68.8-8.2c-1.5-1.4-5.1-5.1-5.3-7.5
			c-0.2-3-10.1-9.2-13.8-12.5c0,0-3.4,1-0.8,5.5c0.7,1.2,2.1,3.2,3.4,5c-0.5-0.3-1-0.6-1.4-0.9c-3.5-2.3-31.1-2.2-35.9,2.3
			c-4.8,4.5,7.7,24,22,24c6.2,0,23.3,2.4,28.6,3.1C2517.2,849.4,2550.7,863.9,2579.8,870.9z"/>
	</g>
	<g>
		<path fill="#163560" d="M1901.3,1130.4c0,0,48.5,16.8,64.5,14.7c0,0,1.1-8.2-13-15.8s-26.2-33-33.8-31.1s-17.7,8.8-17.7,8.8
			L1901.3,1130.4z"/>
		<path fill="#163560" d="M1970.4,1055.1c0,0,50.6-8.3,63.7-17.8c0,0-3-7.7-19-7.7s-38.8-16.6-44.5-11.3
			c-5.8,5.3-11.4,16.2-11.4,16.2L1970.4,1055.1z"/>
		<path fill="#1C468A" d="M1901.3,1130.4c-13.8-0.4-26.8-1-39-1.8c-184.9-10.9-190.3-52-190.3-52c-30.7-94.2,92.8-187.8,92.8-187.8
			s75-10.5,72,33.5c-3,44.1-106.7,130.6-106.7,130.6c34.5,3.2,90.7,22.7,129.2,37.3c24.6,9.3,41.9,16.7,41.9,16.7s3.3,5.6,2.8,11.9
			C1903.5,1125.7,1901.3,1130.4,1901.3,1130.4z"/>
		<path fill="#163560" d="M1862.3,1128.6c-184.9-10.9-190.3-52-190.3-52c-30.7-94.2,92.8-187.8,92.8-187.8s75-10.5,72,33.5
			c-3,44.1-106.7,130.6-106.7,130.6c34.5,3.2,90.7,22.7,129.2,37.3C1864,1102.3,1867,1116.6,1862.3,1128.6z"/>
		<path fill="#1C468A" d="M1970.5,1055.1c-0.1,0-0.1,0-0.2,0c-159.1,43-215.3,42.3-231.5,39.1c-7.2-1.4-12.2-11.9-12.2-11.9
			c-30.7-94.2,100.3-200.4,100.3-200.4s56.5-2.6,72.2,23.2c2.9,4.7,4.4,10.4,4,17.3c-1.9,28.4-44.9,69.3-75.2,94.8
			c-16,13.5-28.5,22.7-29.6,23.5l-0.1,0c52.9-32.7,160.9-6.1,160.9-6.1s6.3,4.4,8.2,8.1C1970.5,1048.4,1970.5,1055.1,1970.5,1055.1z
			"/>
		<path fill="#FFB27D" d="M2025.9,561.3c-2,6.9-14.6,49.6-25.4,82.6c-6.6,20.2-12.7,36.7-15.3,38.9c-2,1.7-9.7,5.9-20.3,11.3
			c-14.8,7.3-35.4,16.5-54.8,23.4c-12.5,4.5-24.5,8-33.9,9.3c-3.6,0.7-6.8,0.8-9.6,0.7c-17.1-1-18.1-19.9-16-35.4
			c0.7-4.4,1.5-8.6,2.3-11.9c1.2-4.8,2.2-7.9,2.2-7.9s2.7-0.6,7.2-1.5c8.6-1.9,24-5,41.3-7.8c16.7-2.7,35.1-5.1,50.6-5.8
			c0,0,8.4-15.3,19-34.3c12.8-23.1,28.8-51.6,36.4-64.2c0.8-1.3,1.3-2.7,1.4-4.1C2015.2,558,2020.3,560.4,2025.9,561.3z"/>
		<path fill="#FFB27D" d="M1769.1,566.5c-1.4,3.1-2.9,6.2-4.3,9.2c0,0,3.4,7.8,7.9,19.2c0.1,0.3,0.2,0.8,0.5,1.2
			c0.8,1.9,1.5,3.8,2.3,5.9c4.7,12.1,10,26.9,14,40.8c0.1,0.5,0.4,0.9,0.5,1.4c2.6,9.2,4.7,18.1,5.4,25.2c0.5,3.8,0.5,7.1,0.1,9.9
			l-41.7,29.9c0,0-0.2-0.8-0.7-2.4c-3.5-11.7-18.8-63.2-23.5-98.9c-1.3-8.6-1.9-16.2-1.5-22.3c0,0-3.4-16.4,14.6-53.5
			c9.2-19,24-43.2,47.7-73.5c0,0,2.6-4.3,4.9-8.6c3.6,3.6,9.6,7.5,13.4,10.3c-2.9,1.3-4.9,3.7-5.4,5.4c-4.4,17-15.3,55.7-29.5,90.1
			c0,0,0,0.1-0.1,0.2c-0.1,0.5-0.3,0.9-0.6,1.4c-0.1,0.4-0.3,0.7-0.5,1.2c-0.8,2.1-1.7,4.2-2.7,6.3
			C1769.6,565.3,1769.4,565.9,1769.1,566.5z"/>
		<path fill="#AA443E" d="M1824.2,791.9c0,0-56.4-58.5-104.7-94.1c-3.3-8.9-5.1-20.8-5.1-20.8c-2.7,4.9-2.3,11.3-1.4,16.1
			c-13.1-9.2-25.4-16.4-35.4-19.9c-3.4-19.6,15.5-40.3,15.5-40.3c-16.2,6.6-22.8,28.2-25,38.1c-1.7-0.1-3.4-0.1-4.9,0.2
			c0,0-1.6-66.3,99.6-66.3c39.4,0,33.8-68.5,89.8-63.5c0,0,61.2,12,49.8,65.4c-11.4,53.4,7.4,65.4,13.9,77.4
			C1923,696.1,1895.3,779.9,1824.2,791.9z"/>
		<path fill="#FFB27D" d="M1874,683l-59.1,23.4l-6.3-26.2c-0.6-7.9,0.2-16.7,1.5-24.8c2.2-13.3,5.7-24.7,6.4-27
			c0.1-0.3,0.1-0.4,0.1-0.4l1.5,0l4.9-0.1l33.2-0.9c-1.3,4.9-2,9.5-2.2,13.8C1853,669.4,1874,683,1874,683z"/>
		<path fill="#E5B0B4" d="M1783.3,667.1c0,0-79.4,43.9-18.5,221.7l126.9,6.9c0,0-54.2-75.4-41.2-101.3
			c13-25.9,38.9-107.2,38.9-107.2L1783.3,667.1z"/>
		<path fill="#2559A5" d="M2000.5,644.3c0,0-11.1,37.1-16.4,40.1c-5.3,3-74.9,38.7-96,41.5c0,0-7.4,0.8-10,2c0,0,0,0,0,0
			c-0.4,0.2-0.7,0.4-0.8,0.6c0,0,0,0.1-0.1,0.2c-1.5,3.9-20.2,67.6-20.6,84.5c-0.3,11.8,51.6,87.5,51,96.1c-0.1,0.8-0.2,1.5-0.5,2.1
			c-2.9,6.4-17.2,5.9-28.9-0.3c-6.2-3.2-17.3-8.3-29.9-12.2c-13.6-4.2-28.9-7-41.4-4.4c-23.9,4.9-48.5-1.2-57.1-27.6
			c-8.6-26.4-7.4-80.4-9.8-91.5c-2.5-11-4.6-45.7,10.1-68.7h0c0,0,0,0,0,0c0,0,1.8-3.7-1.2-11.4c-3.1-7.7-25.5-88.4-22.1-112.7
			c0,0,0.9-23.6,15.8-50.6c0,0,9.2,2.1,17,9c7.8,7,12.9,14.2,14.2,14.5c0,0-8.2,18.4-7.8,20s28.4,80.7,29.9,85.3c0,0,11-1,13.4,1.4
			c0,0-0.9,22.7,50.6,3.9c0,0,3.2-0.5,3.3,2.1c0,0,66.5-10.6,89.6-12.3c0,0,1.2-0.1,8.4-13.5c8.5-15.9,12-19.7,12-19.7
			S1994.2,623,2000.5,644.3z"/>
		<path fill="#174A87" d="M1907.6,909.3c-0.1,0.8-0.2,1.5-0.5,2.1c-2.9,6.4-17.2,5.9-28.9-0.3c-6.2-3.2-17.3-8.3-29.9-12.2
			c-8.2-20.4-19.6-51.4-23.9-76.7c-6.6-38.4,45.3-86.7,52.9-93.5c-1.5,3.9-20.2,67.6-20.6,84.5
			C1856.3,825,1908.2,900.7,1907.6,909.3z"/>
		<path fill="#ED975D" d="M1854.2,640.9c0,0-27.7,14.1-44,14.6c2.2-13.3,5.7-24.7,6.4-27c0.6-0.2,1.1-0.3,1.6-0.4
			c1.2-0.2,2.3-0.3,3.4-0.3c0.5,0,1,0.1,1.5,0.1C1836.9,629.5,1854.2,640.9,1854.2,640.9z"/>
		<path fill="#FFB27D" d="M1803.4,635.2c0,0,47.2,23.9,61.6-5.7c14.4-29.6,30.2-46.4,0.7-63c-29.5-16.5-40.9-8.1-48.1,0.6
			C1810.4,575.9,1791.5,628.2,1803.4,635.2z"/>
		<path fill="#AA443E" d="M1840.4,566.3c0,0,14.3,14.2,10.1,27.7s2.6,40.4,21,43.5c18.4,3.1,40.3-59.2,16.1-71.2
			c-24.2-12-63.9-17.9-75.8-2.9c-12,15-7.4,34.1-7.4,34.1S1821,565.4,1840.4,566.3z"/>
		<path fill="#FFFFFF" d="M1821.6,625.4c0,0-1.9,3.2-10.3-0.1c0,0-7.1-2.8-5.6-6.5C1805.6,618.7,1813.5,618.3,1821.6,625.4z"/>
	</g>
	<path fill="#82B378" d="M1943.7,1426.3h71.7c-9.9-5.9-19.1-9.1-27.4-10.4c12.9-24.5,37.3-74.6,25.5-82.3
		c-12.1-7.9-25.1,53.3-30.4,81.7c-2.1-0.2-4.1-0.2-6-0.2c-3.4-36.5-15.8-147.1-37.6-128.8c-21.1,17.8,17.5,99.1,32.7,129.1
		C1958.2,1416.8,1948.2,1423,1943.7,1426.3z"/>
	<path fill="#FFB27D" d="M1822,445c-0.9,0.2-5.6,4.4-5.4,4.1c6-10.2,8.9-19.3,7.9-23.7c-0.4-1.8-20.4,3.5-23.7,12.5
		c-1.7,4.7-9.1,18.4-9.1,18.4l11.3,5.7c0,0,4.5-2.4,6.5-1.9c2,0.5,9-2.5,11.1-5.9C1820.6,454.4,1825.4,444.4,1822,445z"/>
	<path fill="#FFB27D" d="M2027.9,516.2c-5.6,1.4-18.7,21.7-18.6,25.4c0,0.5,0,1,0,1.5c-0.7-1.8-1.5-3.7-2.1-4.8c-2.1-4-4.4-2-4.4-2
		c0.7,4.2,0.6,14.4,2.8,16c2.1,1.6,3.1,8.1,3.1,8.1l14.8,7.1c0,0,8.3-18.4,11.7-23.8C2041.9,533.2,2033.5,514.8,2027.9,516.2z"/>
</g>
</svg>
